<?xml version="1.0" standalone="no"?>
<!DOCTYPE svg PUBLIC "-//W3C//DTD SVG 20010904//EN"
 "http://www.w3.org/TR/2001/REC-SVG-20010904/DTD/svg10.dtd">
<svg version="1.0" xmlns="http://www.w3.org/2000/svg"
 width="1620.000000pt" height="1620.000000pt" viewBox="0 0 1620.000000 1620.000000"
 preserveAspectRatio="xMidYMid meet">
<metadata>
Created by potrace 1.14, written by Peter Selinger 2001-2017
</metadata>
<g transform="translate(0.000000,1620.000000) scale(0.100000,-0.100000)"
fill="#000000" stroke="none">
<path d="M7365 14078 c-71 -3 -157 -9 -190 -13 -33 -3 -80 -8 -105 -11 -113
-12 -208 -28 -366 -65 -394 -90 -622 -172 -884 -319 -58 -32 -117 -62 -131
-65 -18 -5 -57 4 -120 27 -88 31 -102 33 -224 33 -152 0 -237 -20 -375 -88
-68 -33 -103 -59 -176 -132 -187 -185 -275 -410 -276 -705 -1 -151 14 -231 86
-480 53 -181 54 -187 51 -295 -5 -170 -36 -278 -218 -750 -46 -121 -97 -260
-112 -310 -15 -49 -31 -105 -37 -123 -19 -64 -40 -61 -220 36 -187 100 -243
126 -324 147 -41 10 -61 12 -69 4 -14 -15 38 -56 160 -125 169 -95 346 -207
382 -241 26 -24 33 -36 28 -55 -4 -14 -14 -80 -23 -149 l-17 -124 -28 -1 c-16
-1 -113 16 -215 37 -179 37 -342 52 -371 35 -20 -13 -12 -45 12 -50 12 -3 58
-13 102 -21 44 -9 96 -22 115 -28 19 -6 107 -27 195 -47 l160 -37 -3 -169 c-2
-93 1 -191 7 -219 5 -27 8 -51 6 -53 -1 -2 -136 -5 -299 -8 l-296 -5 6 33 c3
18 8 39 10 47 2 7 0 30 -5 50 -5 20 -12 55 -15 78 -7 57 -27 102 -81 184 -77
115 -181 190 -303 219 -94 22 -240 -17 -321 -87 l-34 -29 -25 23 c-27 25 -57
28 -113 13 -52 -14 -69 -39 -76 -106 -3 -33 -10 -62 -15 -65 -4 -3 -46 -6 -92
-7 -86 -3 -124 -13 -262 -70 -95 -40 -112 -52 -124 -86 -26 -75 10 -152 115
-248 90 -82 121 -93 265 -92 79 0 145 6 180 16 66 18 82 15 123 -29 45 -49 96
-72 180 -82 128 -16 227 3 345 66 73 38 155 90 202 128 9 7 36 10 68 7 42 -3
52 -7 50 -20 -4 -22 4 -22 285 -26 126 -2 232 -7 237 -12 5 -5 30 -74 56 -154
57 -178 97 -267 170 -377 l56 -84 -74 -77 c-301 -320 -460 -838 -396 -1292 6
-47 12 -99 12 -117 1 -17 4 -29 7 -27 10 6 25 -17 40 -61 7 -22 13 -42 14 -45
1 -13 42 -108 100 -235 14 -30 25 -58 24 -61 0 -4 6 -11 15 -16 9 -5 14 -13
11 -17 -2 -5 2 -14 10 -21 8 -7 15 -19 15 -26 0 -8 5 -14 10 -14 6 0 10 -6 10
-13 0 -7 9 -23 20 -35 11 -12 20 -26 20 -32 0 -5 5 -10 11 -10 5 0 7 -5 4 -10
-3 -6 1 -13 9 -16 8 -3 18 -15 21 -25 4 -11 17 -31 31 -44 13 -13 24 -29 24
-35 0 -5 5 -10 10 -10 6 0 10 -5 10 -11 0 -6 15 -25 33 -41 17 -17 25 -26 17
-22 -20 11 92 -97 160 -155 30 -25 57 -49 58 -53 2 -5 10 -8 17 -8 7 0 15 -3
17 -7 2 -5 23 -21 48 -38 44 -30 52 -36 87 -65 10 -8 19 -14 20 -12 7 6 63
-29 63 -39 0 -6 3 -8 8 -6 4 2 21 -4 37 -13 17 -10 62 -35 100 -55 39 -21 73
-42 76 -47 3 -5 9 -9 13 -9 14 2 86 -32 86 -41 0 -5 4 -7 9 -4 5 3 14 -1 21
-9 7 -8 19 -15 27 -15 8 0 27 -9 43 -20 15 -11 30 -17 34 -13 3 3 6 1 6 -5 0
-7 3 -11 8 -10 4 1 31 -9 60 -22 52 -24 54 -25 49 -60 -6 -46 -16 -91 -24
-110 -8 -18 -7 -17 -17 -57 -4 -18 -13 -33 -19 -33 -13 0 -51 -198 -67 -345
-12 -108 -12 -351 0 -450 19 -151 19 -153 -4 -173 -20 -17 -57 -42 -141 -93
-36 -22 -85 -28 -85 -11 0 18 -166 -4 -209 -27 -50 -28 -197 -159 -179 -161 2
-1 37 -3 78 -7 41 -3 77 -7 79 -9 2 -2 -2 -10 -9 -19 -7 -9 -15 -13 -18 -10
-3 3 -11 -4 -19 -14 -8 -12 -31 -22 -56 -26 -61 -9 -86 -13 -142 -24 -28 -5
-86 -12 -130 -16 -44 -4 -96 -9 -115 -11 -19 -2 -55 -6 -80 -9 -25 -3 -61 -7
-80 -10 -19 -2 -53 -7 -75 -9 -22 -3 -58 -8 -80 -11 -22 -3 -57 -7 -77 -9 -20
-3 -54 -7 -75 -10 -21 -3 -60 -9 -88 -12 -109 -13 -148 -19 -257 -40 -18 -4
-44 -8 -58 -9 -14 -2 -25 -4 -25 -5 0 -1 -11 -4 -25 -7 -41 -8 -55 -11 -55
-14 0 -1 -13 -3 -30 -4 -16 -2 -30 -4 -30 -5 0 -2 -14 -5 -60 -14 -16 -3 -40
-8 -52 -11 -13 -3 -32 -7 -44 -10 -11 -2 -30 -8 -42 -12 -12 -4 -30 -8 -39 -9
-10 -1 -20 -3 -23 -4 -3 -1 -9 -4 -15 -5 -5 -1 -11 -3 -12 -5 -4 -2 -22 -6
-68 -15 -19 -3 -37 -10 -38 -16 -2 -5 -8 -6 -13 -3 -6 3 -15 1 -22 -4 -7 -6
-15 -11 -19 -11 -15 -3 -43 -13 -60 -22 -16 -8 -18 -3 -18 48 0 32 11 112 25
178 22 108 33 138 114 300 50 99 98 210 107 245 21 82 23 231 5 287 -20 61
-12 73 51 73 59 0 124 25 157 61 39 42 109 153 130 207 60 152 60 277 1 391
-28 54 -108 126 -178 161 l-62 31 6 92 c8 110 -4 175 -48 264 -55 111 -165
195 -297 225 -42 9 -75 9 -150 0 -102 -13 -256 -56 -282 -78 -29 -25 -52 -15
-118 54 -80 82 -151 126 -201 124 -47 -2 -154 -37 -210 -70 -88 -50 -176 -171
-242 -332 -25 -61 -30 -66 -74 -82 -141 -51 -324 -203 -354 -294 -16 -48 -8
-200 15 -280 25 -89 89 -167 168 -205 34 -16 69 -29 78 -29 27 0 41 -24 30
-51 -16 -38 -41 -177 -41 -223 1 -92 88 -245 207 -363 90 -90 133 -114 238
-136 137 -27 270 26 337 134 17 28 34 49 38 47 4 -2 30 -30 58 -63 60 -72 108
-159 118 -212 4 -21 9 -47 11 -58 3 -11 6 -29 8 -41 1 -11 19 -85 38 -165 20
-79 39 -164 43 -188 l7 -44 -44 8 c-100 18 -248 11 -439 -20 -52 -9 -108 -18
-125 -21 -27 -4 -127 -25 -195 -41 -14 -4 -28 -6 -32 -5 -5 1 -8 -2 -8 -8 0
-5 -8 -10 -19 -10 -10 0 -36 -7 -57 -16 -21 -9 -46 -17 -56 -19 -53 -11 -189
-107 -168 -120 5 -3 10 -13 10 -21 0 -8 9 -24 19 -35 10 -11 30 -43 42 -70 13
-27 27 -49 31 -49 5 0 8 -7 8 -15 0 -8 5 -15 10 -15 6 0 10 -7 10 -15 0 -8 4
-15 8 -15 5 0 15 -12 22 -27 21 -42 41 -63 53 -56 5 3 7 1 3 -5 -3 -6 -2 -13
4 -17 13 -8 3 -25 -13 -25 -8 0 -8 3 2 9 8 5 9 11 3 15 -5 3 -13 -1 -16 -9 -7
-19 19 -31 37 -19 7 5 4 1 -6 -8 -19 -18 -19 -18 4 -18 18 0 20 -3 10 -9 -19
-12 -4 -33 22 -29 16 2 22 -2 22 -15 0 -10 5 -21 10 -25 6 -4 11 -14 13 -22 2
-8 8 -17 13 -18 5 -2 9 -8 9 -13 0 -6 -4 -8 -8 -5 -5 3 -9 -1 -9 -9 0 -8 5
-11 11 -7 6 3 20 8 31 10 19 2 19 2 2 -11 -17 -12 -17 -14 5 -32 l23 -20 -20
25 -20 25 22 -19 c19 -16 21 -22 10 -34 -9 -13 -9 -14 1 -8 11 7 17 -11 13
-37 -1 -5 3 -6 9 -2 6 3 7 11 4 17 -4 6 -2 8 4 4 6 -3 9 -16 7 -27 -3 -17 -1
-19 10 -9 11 9 13 7 9 -12 -2 -13 -2 -17 2 -11 8 18 38 -13 30 -32 -7 -19 17
-33 61 -37 7 -1 10 -5 7 -10 -4 -5 -12 -7 -20 -4 -8 3 -14 3 -14 0 0 -3 13
-10 30 -15 16 -6 27 -15 24 -20 -3 -6 -13 -5 -22 3 -15 11 -15 11 -4 -3 8 -11
21 -15 35 -11 20 5 21 4 8 -12 -8 -9 -11 -19 -7 -23 3 -3 6 0 6 7 0 9 5 7 14
-6 11 -14 11 -21 3 -27 -7 -5 1 -6 18 -3 22 5 26 4 15 -4 -13 -8 -13 -10 3
-10 9 0 17 -5 17 -11 0 -8 4 -8 14 0 11 9 16 9 22 0 5 -8 3 -9 -6 -4 -10 6
-11 1 -6 -21 4 -16 12 -31 17 -32 5 -2 6 -9 2 -15 -4 -7 0 -6 10 1 14 12 15
10 11 -15 l-4 -28 15 25 16 25 -7 -24 c-4 -15 -2 -21 4 -17 6 3 14 1 18 -5 4
-8 3 -9 -4 -5 -7 4 -12 2 -12 -3 0 -6 7 -11 15 -11 10 0 15 -7 13 -17 -2 -12
4 -18 20 -18 22 0 30 -11 16 -23 -4 -4 -4 -1 1 7 6 10 4 12 -4 7 -9 -6 -9 -11
0 -22 7 -9 16 -11 23 -5 7 6 19 2 35 -10 13 -10 18 -19 11 -19 -9 0 -10 -3 -1
-13 6 -8 8 -17 4 -20 -3 -4 -1 -7 4 -7 6 0 13 3 15 8 2 4 14 -4 27 -17 15 -15
17 -22 7 -18 -9 4 -16 2 -16 -3 0 -6 7 -10 15 -10 8 0 15 -5 15 -11 0 -5 -4
-7 -10 -4 -6 3 -7 -1 -3 -10 3 -9 9 -13 12 -8 3 5 15 13 26 17 16 6 18 5 8 -5
-15 -15 -17 -33 -3 -24 5 3 12 -6 16 -20 3 -14 14 -30 23 -35 14 -8 14 -11 1
-20 -9 -6 -10 -10 -3 -10 7 0 17 8 22 18 9 15 11 14 12 -8 1 -14 1 -29 0 -33
-1 -5 3 -6 8 -2 6 3 9 11 7 18 -1 7 -1 9 1 5 3 -5 12 -8 21 -8 13 0 13 -2 -3
-13 -20 -15 -5 -34 17 -21 8 5 9 2 5 -9 -7 -19 13 -23 29 -7 6 6 10 0 12 -18
1 -15 7 -29 12 -30 6 -2 7 -9 3 -15 -4 -7 0 -8 11 -4 14 6 17 3 12 -8 -5 -13
-2 -14 15 -4 12 6 19 7 16 2 -3 -5 3 -14 14 -21 11 -7 19 -8 19 -2 0 5 5 10
11 10 8 0 7 -5 -2 -16 -10 -13 -10 -17 1 -24 8 -5 18 -6 24 -3 5 3 6 1 2 -5
-4 -7 -2 -12 4 -12 7 0 8 -6 0 -19 -9 -17 -7 -19 11 -16 12 3 29 0 38 -6 14
-9 14 -10 -1 -5 -10 3 -20 1 -23 -5 -4 -5 -3 -9 2 -8 4 1 15 1 23 0 13 -1 13
-2 0 -11 -9 -6 -10 -10 -3 -10 6 0 15 5 18 11 5 7 13 5 24 -5 10 -9 20 -15 22
-14 3 2 -4 -5 -15 -15 -19 -17 -18 -18 15 -12 32 6 33 5 14 -10 -15 -11 -16
-13 -3 -9 16 5 44 -27 33 -38 -3 -3 2 -5 10 -5 17 0 20 13 5 20 -6 3 -5 4 2 3
7 -1 14 -13 16 -25 2 -15 9 -21 18 -17 9 3 14 -1 14 -12 0 -10 7 -27 16 -38
15 -18 15 -18 5 3 -17 33 -13 40 6 13 9 -14 23 -29 30 -33 7 -5 11 -12 9 -16
-3 -4 10 -7 28 -6 27 0 32 -3 28 -17 -2 -10 1 -18 7 -18 7 0 9 5 5 12 -4 7 -3
8 4 4 6 -4 8 -14 5 -22 -8 -22 17 -36 36 -21 12 9 13 9 7 0 -4 -8 -2 -13 5
-13 9 0 9 -3 0 -14 -10 -12 -8 -13 10 -9 15 4 20 3 15 -5 -4 -7 -1 -12 8 -12
9 0 16 -4 16 -10 0 -5 7 -10 16 -10 8 0 13 -4 10 -8 -2 -4 0 -14 6 -22 8 -12
9 -12 4 3 -3 9 0 17 6 17 6 0 5 7 -3 18 -13 15 -12 16 3 3 11 -8 16 -22 14
-36 -3 -14 1 -22 10 -22 10 0 11 4 3 14 -7 7 -7 13 -2 13 10 0 38 -50 35 -63
-1 -4 1 -6 5 -5 12 2 46 -14 62 -30 7 -7 20 -11 28 -8 8 3 12 2 9 -3 -7 -11
22 -23 36 -14 7 3 8 1 4 -5 -4 -7 -2 -12 3 -12 6 0 11 -7 11 -16 0 -8 4 -12
10 -9 5 3 10 -1 10 -9 0 -9 4 -16 10 -16 5 0 7 8 4 17 -5 16 -4 16 6 0 10 -15
14 -16 28 -5 13 10 13 8 -1 -9 -19 -21 -19 -22 5 -16 18 4 20 3 8 -6 -13 -9
-13 -11 2 -11 9 0 19 6 22 13 3 6 3 0 1 -15 -3 -26 -2 -27 17 -17 13 7 18 7
14 1 -3 -6 -2 -13 4 -17 6 -4 8 -10 5 -15 -6 -10 15 -8 33 3 14 10 16 -4 2
-21 -6 -6 -7 -10 -4 -7 4 3 13 0 21 -7 11 -8 12 -7 8 5 -4 8 -2 17 3 21 5 3 9
-1 10 -9 1 -8 3 -22 4 -30 1 -11 5 -12 15 -3 7 6 16 8 20 4 3 -3 1 -6 -6 -6
-9 0 -8 -4 3 -15 16 -17 30 -20 21 -6 -3 5 0 13 6 17 7 4 9 3 5 -4 -6 -9 29
-28 45 -24 4 1 6 -6 5 -16 0 -9 5 -16 12 -14 6 1 12 -5 12 -14 0 -10 5 -14 16
-10 8 3 13 2 10 -3 -3 -5 1 -12 10 -15 8 -3 12 -2 9 3 -3 5 -2 12 3 15 5 3 9
-1 10 -9 1 -8 3 -21 4 -28 1 -8 7 -14 15 -15 7 -1 20 -3 28 -4 8 -1 14 -8 13
-17 -2 -12 8 -16 45 -18 26 -1 55 -7 63 -13 11 -10 14 -10 14 0 0 29 16 -8 19
-44 1 -5 7 -3 15 3 11 9 12 6 8 -14 -2 -14 0 -25 7 -25 5 0 9 6 7 13 -1 6 -1
9 1 4 3 -4 9 -5 14 -2 5 4 6 -1 3 -10 -5 -11 -2 -14 10 -9 9 3 13 11 9 17 -4
6 -1 7 6 3 7 -5 10 -14 7 -22 -3 -8 -2 -13 2 -13 4 1 14 1 22 -1 11 -1 10 -4
-5 -11 -17 -8 -16 -8 7 -4 20 4 31 0 42 -16 9 -14 26 -21 49 -22 22 -1 33 -5
30 -11 -3 -6 0 -5 8 2 11 10 17 7 32 -20 15 -28 17 -29 12 -8 -5 25 -5 25 6 2
7 -12 16 -22 21 -22 4 0 8 -5 8 -11 0 -5 -5 -7 -12 -3 -7 5 -8 3 -3 -6 6 -10
11 -9 22 5 12 18 13 18 13 -3 0 -20 3 -21 20 -12 11 6 18 16 15 23 -4 7 2 2
13 -10 13 -15 23 -18 29 -12 7 7 9 1 6 -18 -4 -24 -3 -26 7 -10 11 17 15 15
47 -20 19 -21 31 -32 27 -24 -4 9 -3 12 4 7 5 -3 13 0 15 6 4 10 6 10 6 1 1
-7 10 -13 20 -13 11 0 23 -5 26 -10 4 -6 11 -7 17 -4 7 4 8 2 4 -5 -6 -8 -12
-9 -20 -2 -9 8 -13 7 -13 -4 0 -8 3 -13 5 -10 3 3 11 0 18 -5 8 -8 17 -5 30 7
17 17 18 17 11 0 -6 -15 -3 -17 14 -12 15 5 19 4 15 -4 -4 -6 -13 -11 -21 -11
-8 0 -17 -4 -20 -10 -4 -7 3 -7 20 0 20 8 32 6 48 -5 25 -18 41 -20 31 -4 -5
8 -1 8 13 0 11 -6 24 -7 28 -3 5 4 5 2 1 -5 -4 -7 -12 -11 -19 -9 -7 1 -8 1
-4 -2 4 -2 2 -11 -5 -20 -10 -11 -6 -11 16 3 l29 19 -7 -24 c-5 -17 -4 -21 2
-11 7 9 17 11 33 5 13 -4 27 -8 31 -9 3 0 10 -4 15 -9 4 -5 3 -6 -4 -2 -6 3
-15 2 -18 -4 -4 -6 -3 -10 2 -9 4 1 23 1 42 0 24 -1 32 -5 28 -15 -3 -8 2 -20
11 -28 15 -12 16 -11 4 4 -12 15 -11 17 7 15 11 0 17 -5 15 -9 -8 -13 11 -9
25 4 9 8 11 8 8 2 -4 -7 0 -15 9 -18 8 -3 12 -2 9 3 -3 5 0 13 6 17 8 4 9 3 5
-5 -4 -6 -1 -14 8 -17 8 -3 14 -11 12 -17 -1 -7 -1 -9 1 -4 8 12 31 8 37 -8 3
-8 10 -15 16 -15 6 0 9 4 6 8 -3 5 1 9 9 9 8 0 12 -4 9 -9 -3 -4 0 -16 6 -25
11 -17 11 -17 6 0 -3 9 -1 17 4 17 6 0 10 -7 10 -15 0 -8 7 -15 15 -15 8 0 15
5 15 12 0 6 7 3 15 -8 13 -17 14 -17 15 -1 0 9 5 17 11 17 6 0 8 -9 4 -22 -3
-13 -3 -18 2 -13 4 6 17 17 28 25 16 11 17 11 8 0 -17 -18 -16 -27 2 -27 8 0
12 4 9 9 -3 4 0 8 5 8 6 0 11 -10 11 -21 0 -17 5 -20 25 -17 14 3 28 1 31 -4
3 -4 10 -6 15 -3 5 4 9 -1 9 -10 0 -9 5 -13 10 -10 6 3 10 1 10 -6 0 -8 4 -8
15 1 13 11 14 10 10 -2 -4 -9 0 -15 9 -15 8 0 13 4 10 8 -2 4 0 10 6 14 5 3
10 -1 10 -9 0 -8 4 -18 10 -21 6 -4 7 1 3 11 -4 11 -3 15 4 11 6 -4 14 -1 17
5 3 7 3 2 -1 -12 -5 -23 -5 -24 13 -10 10 8 23 20 27 25 5 6 6 2 3 -8 -4 -11
1 -20 12 -24 9 -4 23 -14 30 -22 8 -9 11 -11 8 -4 -4 7 1 9 14 6 11 -3 20 -13
20 -22 0 -14 2 -14 10 -1 8 13 10 12 10 -4 0 -15 3 -16 15 -6 13 11 14 10 8
-6 -7 -19 -6 -19 21 0 16 10 26 14 22 8 -3 -5 0 -12 8 -15 8 -3 17 1 20 9 5
12 9 12 25 2 11 -7 18 -14 16 -18 -2 -3 7 -5 20 -5 13 0 21 3 18 8 -2 4 -2 7
1 7 3 0 13 -12 21 -27 9 -16 14 -20 11 -11 -3 10 -1 18 4 18 6 0 10 -6 10 -13
0 -9 11 -12 36 -9 29 4 35 2 28 -9 -6 -11 -3 -10 11 1 11 9 16 10 11 3 -4 -7
-2 -13 3 -13 6 0 11 -7 11 -16 0 -15 2 -15 24 0 18 11 27 13 32 4 5 -7 2 -8
-7 -3 -8 5 -11 4 -7 0 15 -16 78 -14 89 4 9 14 10 14 5 -2 -7 -21 7 -22 28 -1
9 8 16 12 16 7 0 -5 -5 -14 -12 -21 -9 -9 -9 -12 -1 -12 7 0 15 5 18 10 3 6
11 10 16 10 6 0 7 -4 4 -10 -3 -5 -1 -10 5 -10 6 0 8 -5 4 -12 -4 -7 -3 -8 5
-4 6 4 9 12 6 17 -4 5 -1 9 4 9 10 0 15 -14 12 -33 -1 -4 11 0 26 10 15 10 24
13 20 7 -4 -7 3 -14 18 -16 22 -5 24 -3 13 11 -12 14 -11 15 5 2 11 -8 16 -22
14 -33 -3 -10 -1 -16 4 -12 5 3 9 0 9 -7 0 -7 7 -4 16 7 10 12 14 13 11 4 -3
-11 3 -15 23 -15 19 0 25 4 19 11 -10 13 26 12 38 -1 5 -4 3 -5 -3 -2 -6 3
-11 0 -11 -7 0 -8 6 -12 14 -9 7 3 13 10 13 16 0 5 8 3 19 -7 19 -17 52 -13
47 7 -1 7 -1 9 1 4 3 -4 10 -4 15 -1 7 5 8 2 3 -6 -6 -10 -4 -12 8 -7 9 3 18
1 21 -6 2 -7 5 -3 5 8 1 16 3 17 10 5 6 -8 7 -18 5 -22 -3 -4 3 -5 12 -1 10 4
15 2 11 -4 -3 -5 0 -10 8 -10 8 0 12 4 9 9 -3 4 -1 8 5 8 5 0 11 -6 13 -12 3
-7 18 -11 37 -10 23 2 30 -1 25 -9 -4 -8 -3 -9 4 -5 7 4 12 15 12 24 0 13 2
13 14 -4 8 -10 19 -20 25 -20 6 -1 18 -2 27 -3 8 0 13 -5 10 -10 -3 -5 1 -12
10 -15 8 -3 13 -2 10 3 -3 5 1 12 10 15 12 5 15 2 10 -11 -6 -14 -4 -15 5 -6
6 6 18 9 27 6 11 -5 13 -3 7 8 -8 12 -6 12 9 0 13 -11 14 -16 4 -22 -7 -5 -8
-9 -2 -9 6 0 14 3 18 7 3 4 13 8 21 10 8 2 23 5 33 7 9 2 25 -1 36 -6 13 -7
16 -7 12 1 -4 6 -2 11 3 11 6 0 11 -7 11 -16 0 -8 4 -13 10 -9 5 3 6 13 3 22
-6 15 -5 16 9 3 9 -8 14 -17 13 -20 -2 -3 5 -6 15 -6 14 0 16 3 8 13 -6 8 -8
16 -4 20 3 3 6 1 6 -6 0 -7 6 -11 14 -8 17 7 39 -16 28 -28 -4 -5 -1 -5 6 -1
7 4 10 11 7 15 -2 5 6 9 20 9 16 0 22 -5 18 -12 -4 -7 -1 -6 8 1 13 10 19 10
35 -3 18 -15 18 -15 -2 -5 -15 7 -21 7 -21 -2 0 -14 45 -16 66 -3 10 6 12 5 7
-2 -4 -7 -3 -12 3 -12 5 0 12 6 14 13 4 9 6 8 6 -2 1 -11 4 -11 16 -1 12 10
15 9 15 -6 0 -17 1 -17 13 1 10 12 16 14 21 7 4 -7 12 -12 17 -12 6 0 8 4 5 8
-3 5 1 9 9 9 8 0 12 -4 9 -9 -3 -4 4 -8 15 -8 10 0 22 6 24 13 4 9 6 9 6 0 1
-7 8 -13 17 -13 9 0 12 5 8 13 -5 9 -4 9 6 0 11 -10 17 -10 29 0 12 10 13 9 6
-2 -6 -11 -3 -13 13 -9 14 4 25 0 31 -10 7 -13 10 -12 16 7 l6 21 18 -21 c14
-17 18 -19 18 -6 0 9 -5 13 -10 10 -6 -3 -7 -1 -4 5 8 12 24 11 51 -5 15 -8
23 -7 35 6 9 9 13 12 9 7 -5 -6 -8 -17 -8 -26 0 -12 2 -12 9 -2 8 13 46 13 68
-1 15 -9 27 9 17 26 -5 8 -3 8 9 -2 9 -7 14 -18 10 -24 -3 -6 -1 -7 6 -3 6 4
9 12 6 17 -4 5 -2 9 4 9 5 0 12 -6 14 -12 3 -7 6 -4 6 7 1 16 3 17 10 5 6 -8
7 -18 5 -22 -3 -4 0 -8 5 -8 6 0 11 10 12 23 l0 22 11 -23 c10 -20 27 -27 52
-23 5 1 6 -6 2 -16 -5 -16 -4 -15 9 1 8 11 15 14 15 8 0 -9 5 -10 19 -2 11 5
22 6 25 2 4 -8 56 -9 64 -2 7 7 28 5 38 -2 7 -5 14 -3 18 7 3 8 12 15 20 15
10 0 13 6 10 18 -4 10 -3 13 3 6 4 -7 24 -13 43 -15 19 -2 40 -7 47 -11 13
-10 27 7 18 22 -3 6 -4 10 0 10 3 0 10 -10 15 -22 7 -18 9 -19 9 -5 1 9 6 17
12 17 5 0 7 -5 4 -11 -4 -5 10 -3 30 5 33 14 36 14 25 1 -11 -13 -10 -14 4 -9
9 3 23 1 30 -5 11 -9 16 -9 22 0 5 8 3 9 -6 4 -9 -5 -11 -4 -6 4 4 6 13 8 19
4 18 -11 38 -12 31 -2 -3 5 -11 6 -17 3 -7 -4 -8 -3 -4 1 14 16 36 13 42 -6 6
-19 7 -18 27 3 11 14 18 17 15 8 -4 -13 4 -16 38 -15 30 0 40 3 34 11 -5 7 -3
11 6 11 8 0 15 -4 15 -9 0 -13 28 -9 33 5 4 9 6 9 6 0 1 -7 6 -13 12 -13 5 0
8 4 5 9 -7 10 20 9 30 -2 4 -4 14 -1 22 6 9 6 13 7 9 1 -3 -6 0 -11 7 -11 8 0
12 7 8 15 -3 10 -1 13 6 8 7 -4 12 -2 12 5 0 7 3 9 7 6 3 -4 15 0 25 10 11 9
18 11 18 5 0 -7 -4 -12 -8 -12 -4 0 -9 -10 -9 -22 -2 -18 0 -19 7 -8 5 8 14
16 20 16 5 1 15 2 21 3 5 0 8 5 4 10 -3 5 0 13 6 17 7 4 9 3 6 -3 -10 -15 17
-35 37 -27 14 5 14 9 4 23 -11 14 -11 14 3 3 12 -9 24 -10 44 -2 24 9 26 9 16
-4 -9 -11 -8 -14 6 -12 10 0 24 8 31 16 8 8 11 10 8 3 -4 -7 1 -11 11 -11 10
0 23 0 28 -2 21 -5 36 0 30 11 -4 6 3 5 14 -3 18 -11 23 -11 31 2 8 12 10 12
10 1 0 -11 3 -11 17 0 9 8 14 9 10 3 -4 -8 2 -11 18 -10 23 1 24 2 8 15 -17
12 -16 13 5 8 18 -4 21 -3 12 7 -8 11 -4 13 21 10 18 -2 38 1 45 7 9 7 14 6
20 -2 4 -7 3 -9 -3 -6 -5 3 -10 -1 -10 -10 0 -12 5 -11 19 7 10 12 18 17 18
11 0 -7 5 -9 10 -6 6 3 10 1 10 -4 0 -6 5 -11 10 -11 7 0 7 6 0 20 -9 16 -8
19 6 13 10 -4 15 -2 11 3 -3 6 3 11 14 11 18 2 19 0 7 -14 -8 -10 -8 -14 -1
-10 6 4 13 4 16 0 2 -5 3 -3 1 4 -5 20 9 23 23 5 8 -9 12 -12 9 -5 -4 6 3 14
14 18 11 4 17 11 14 17 -4 7 -2 8 5 4 9 -6 9 -11 0 -22 -10 -12 -9 -17 0 -27
10 -9 11 -8 5 7 -6 15 -4 18 8 14 8 -4 21 -2 29 4 11 8 11 9 -3 4 -12 -3 -15
-1 -11 10 4 10 9 12 18 4 15 -12 36 -10 48 5 5 6 6 -1 2 -15 -5 -22 -4 -23 7
-9 7 9 19 14 27 11 8 -2 11 -1 8 4 -3 5 8 9 23 9 16 1 27 -2 24 -6 -2 -4 5 -9
16 -12 13 -3 18 -1 13 6 -4 7 0 8 12 3 15 -5 16 -4 6 8 -10 12 -9 14 8 9 13
-3 23 0 27 10 4 13 11 14 31 6 24 -9 25 -8 12 7 -13 16 -12 16 6 7 15 -9 22
-8 31 5 7 9 25 17 40 18 17 1 28 7 26 13 -1 7 2 10 7 6 6 -3 8 -12 5 -19 -6
-15 40 -16 53 -2 4 5 3 6 -3 3 -6 -3 -11 0 -11 8 0 9 4 11 11 6 6 -4 23 -10
38 -13 20 -4 25 -1 21 11 -3 12 0 11 11 -3 16 -20 16 -20 17 0 0 10 3 13 6 7
2 -7 9 -13 14 -13 6 0 7 6 3 13 -5 7 0 6 11 -3 11 -9 16 -10 11 -2 -4 6 -2 12
3 12 6 0 11 5 11 11 0 5 -5 7 -12 3 -7 -4 -8 -3 -4 5 4 6 11 9 16 6 4 -3 10
-2 13 2 2 5 3 3 1 -3 -1 -7 8 -9 23 -6 20 4 24 2 18 -8 -5 -9 -4 -11 4 -6 6 4
8 12 5 18 -5 8 -1 9 10 5 13 -5 17 -3 13 7 -4 10 -1 13 8 9 9 -3 18 4 24 18 7
18 10 19 10 7 1 -10 6 -18 12 -18 5 0 7 6 3 13 -5 8 -2 8 9 -2 12 -9 17 -10
17 -2 0 7 5 9 13 4 19 -12 38 -12 31 -1 -5 7 -2 8 6 3 7 -4 16 -2 21 6 6 10 9
11 9 2 0 -7 7 -13 16 -13 9 0 12 5 8 13 -5 8 -2 8 9 -2 9 -7 18 -11 18 -7 2
10 6 25 9 34 1 4 2 11 1 15 -1 5 3 6 8 2 6 -3 8 -13 5 -23 -5 -16 -5 -16 6 1
12 19 36 24 24 5 -5 -7 -3 -8 5 -4 7 5 10 14 7 22 -3 8 0 11 9 7 8 -3 12 -10
8 -16 -3 -6 -1 -7 5 -3 6 3 9 15 7 26 -2 11 1 22 6 26 5 3 9 2 8 -3 -3 -19 2
-30 16 -30 12 0 12 3 2 15 -10 13 -9 14 7 5 20 -11 52 -7 75 11 11 8 13 8 8 0
-4 -7 0 -14 8 -17 9 -4 12 -1 8 9 -5 12 12 19 39 15 4 0 4 7 1 17 -3 9 -3 14
2 10 4 -4 14 -3 21 3 8 7 14 7 19 -1 4 -6 1 -9 -6 -8 -6 2 -13 -3 -15 -10 -1
-7 0 -8 3 -2 2 5 8 8 13 5 4 -3 14 3 21 12 10 12 10 14 2 9 -7 -4 -13 -3 -13
3 0 5 9 13 20 16 11 4 17 11 14 17 -4 7 -2 8 5 4 9 -6 9 -11 0 -22 -6 -8 -9
-17 -5 -21 3 -3 6 -1 6 6 0 7 7 11 15 8 8 -4 17 -1 21 5 4 7 3 8 -4 4 -8 -4
-10 -2 -6 7 6 16 28 17 41 2 4 -4 2 -5 -6 0 -9 5 -12 4 -7 -3 4 -6 13 -9 21
-6 8 4 12 11 8 18 -4 6 1 5 10 -3 12 -9 17 -10 17 -2 0 7 5 9 12 5 8 -5 9 -2
5 10 -4 9 -3 15 2 11 5 -3 17 3 27 12 17 17 17 17 12 -5 -5 -18 -4 -21 6 -13
7 6 16 8 20 4 4 -4 4 0 0 10 -4 12 -1 17 11 17 9 0 14 4 11 9 -3 5 1 11 9 14
9 4 12 1 8 -9 -3 -7 0 -14 6 -14 6 0 11 9 11 20 0 17 2 19 14 8 8 -7 12 -17 9
-23 -3 -5 5 1 17 15 18 20 21 21 16 6 -7 -20 -7 -20 15 0 12 10 20 14 16 8 -3
-6 0 -11 8 -11 8 0 12 4 9 9 -3 4 2 8 10 8 8 0 18 5 22 12 4 6 3 8 -3 5 -5 -3
-10 0 -10 8 0 11 4 11 21 0 19 -12 66 -5 66 9 0 3 -7 2 -17 -1 -11 -5 -14 -3
-9 6 5 7 18 10 30 7 19 -5 20 -4 3 8 -16 12 -16 14 -2 20 9 3 13 2 10 -4 -3
-6 1 -10 9 -10 9 0 16 6 16 13 0 8 4 7 10 -3 6 -10 10 -11 10 -2 0 6 5 12 11
12 5 0 7 -5 3 -12 -4 -7 -3 -8 5 -4 9 6 9 12 -1 24 -7 10 -8 14 -4 10 5 -4 16
-2 24 5 10 7 13 8 9 1 -4 -8 2 -11 18 -10 17 1 23 6 20 15 -4 9 0 11 11 7 14
-5 15 -4 5 8 -10 12 -9 13 8 9 12 -3 21 -10 21 -16 0 -6 2 -8 5 -5 10 9 -7 38
-18 31 -6 -3 -7 -1 -3 6 6 9 11 9 22 0 12 -10 17 -8 28 6 14 20 46 29 46 14 0
-6 5 -7 10 -4 8 5 7 12 -2 23 -12 15 -11 16 5 3 10 -8 16 -20 13 -28 -3 -8 -1
-11 4 -8 6 3 10 12 10 20 0 8 5 17 12 21 7 4 8 3 4 -4 -4 -7 -2 -12 3 -12 6 0
11 7 11 15 0 8 5 15 11 15 5 0 7 5 3 12 -5 7 -3 8 7 2 20 -12 40 -14 33 -3 -3
5 -11 6 -17 2 -7 -4 -7 -1 1 9 14 17 47 14 36 -3 -3 -5 0 -9 6 -9 7 0 10 7 7
15 -4 8 -2 17 3 20 6 4 10 1 10 -5 0 -6 5 -8 10 -5 6 4 8 11 5 16 -3 5 1 6 9
3 9 -3 16 -10 16 -15 0 -5 9 -1 19 8 11 9 17 21 15 28 -3 7 2 15 10 18 10 4
13 1 9 -9 -3 -7 0 -14 6 -14 6 0 11 6 11 14 0 8 5 18 12 22 6 4 8 3 5 -3 -3
-5 0 -10 8 -10 8 0 12 4 9 9 -3 4 2 18 12 30 11 16 15 17 11 5 -4 -9 -2 -17 3
-17 6 0 10 5 10 10 0 7 6 7 19 1 14 -8 22 -7 31 4 6 8 9 18 7 23 -3 4 -2 14 2
21 6 10 10 9 14 -4 5 -11 3 -14 -6 -9 -6 4 -8 3 -4 -1 4 -5 14 -10 23 -11 11
-2 12 1 5 10 -8 9 -6 18 4 32 15 19 15 19 13 0 -2 -10 3 -20 10 -22 7 -1 8 0
2 3 -16 8 -1 23 17 16 11 -4 14 -3 9 5 -10 16 16 15 34 0 12 -11 12 -10 2 4
-9 11 -10 18 -2 23 5 3 10 1 10 -4 0 -6 5 -11 11 -11 5 0 8 4 5 8 -3 5 4 16
15 25 11 10 17 22 14 27 -3 5 1 7 9 4 9 -3 12 -12 9 -22 -4 -9 -3 -14 1 -10 4
3 9 14 10 24 2 10 9 20 16 22 8 3 10 0 6 -9 -4 -8 -1 -6 7 4 8 9 17 17 20 17
4 0 4 -8 1 -17 -5 -17 -5 -17 6 0 6 9 15 15 21 12 5 -4 9 -1 9 5 0 7 -7 10
-15 7 -8 -4 -17 -1 -21 5 -4 7 -3 8 4 4 7 -4 12 -2 12 4 0 7 7 10 15 6 8 -3
15 -2 15 2 0 5 7 17 16 28 14 17 15 17 10 1 -5 -15 -2 -16 14 -7 11 6 20 15
20 21 0 6 7 6 20 -1 16 -8 20 -8 18 2 -2 7 3 12 10 10 6 -1 11 4 10 10 -2 8 9
14 25 16 15 2 25 8 21 13 -3 5 -10 6 -16 3 -7 -4 -8 -2 -4 4 4 6 14 8 23 5 10
-4 14 -2 10 4 -8 12 20 26 34 17 9 -5 13 9 10 33 -1 6 3 14 9 18 6 3 7 0 4 -9
-9 -23 22 -20 46 4 12 12 18 25 15 30 -3 5 0 12 6 16 8 5 9 3 4 -6 -6 -10 -4
-12 9 -7 10 4 20 7 23 7 3 0 0 6 -6 13 -8 11 -6 13 11 12 12 -1 25 -10 30 -21
5 -14 7 -10 4 12 -3 24 0 31 13 30 9 0 20 -5 24 -11 5 -5 5 1 2 14 -5 16 -4
21 4 17 6 -4 11 0 11 11 1 17 2 17 13 1 12 -15 14 -15 25 3 7 11 17 17 22 14
6 -3 7 1 4 10 -4 10 -2 15 7 13 8 -2 13 3 11 11 -2 9 3 11 14 7 12 -5 15 -2
10 10 -5 14 -4 15 9 4 13 -11 14 -10 8 5 -5 15 -3 17 11 12 9 -4 15 -3 12 1
-2 4 -1 14 4 22 7 12 13 13 28 4 16 -10 18 -9 18 10 -1 14 5 21 17 20 9 -1 17
5 18 15 0 10 2 11 6 4 2 -7 9 -13 14 -13 4 0 5 7 2 17 -5 12 -3 14 7 8 10 -6
12 -4 7 8 -7 19 8 32 19 16 5 -8 3 -9 -6 -4 -9 5 -11 4 -6 -4 10 -16 27 -3 24
17 -2 9 3 16 10 14 6 -1 12 6 12 15 0 15 2 16 10 3 8 -13 10 -12 10 3 0 11 4
15 12 11 7 -5 9 -2 6 7 -4 10 1 15 13 16 12 1 16 -3 12 -15 -4 -13 -3 -14 5
-4 5 8 8 24 6 38 -1 13 3 27 8 31 6 3 8 1 5 -4 -4 -6 0 -13 8 -17 8 -3 17 -1
20 5 4 5 12 6 18 3 7 -4 8 -3 4 2 -5 5 -13 9 -18 9 -5 0 -9 3 -9 8 0 4 0 9 0
12 0 3 10 0 23 -6 19 -11 21 -11 9 3 -10 13 -10 18 -1 24 7 4 9 3 6 -3 -4 -6
0 -13 8 -17 8 -3 14 0 12 6 -1 6 4 13 12 16 10 3 12 0 7 -14 -6 -15 -5 -16 5
-7 10 10 9 16 -2 29 -12 15 -11 16 11 10 16 -5 20 -4 12 2 -10 7 -7 16 17 39
16 17 27 34 23 38 -4 5 -1 5 6 1 11 -6 7 -15 -13 -36 -20 -21 -24 -30 -13 -36
7 -4 10 -4 6 1 -10 11 11 37 23 29 5 -3 8 -2 7 3 -1 4 10 21 25 37 26 28 27
30 10 50 -18 21 -18 21 2 5 11 -9 27 -20 35 -24 13 -8 13 -6 2 8 -12 14 -11
16 6 12 12 -2 23 3 26 11 4 10 2 12 -6 8 -7 -4 -8 -3 -4 4 4 7 14 12 22 12 8
0 14 5 14 11 0 6 6 9 14 6 10 -4 14 0 11 13 -2 12 1 17 10 14 7 -3 16 0 20 5
3 6 10 9 14 7 4 -3 8 1 8 9 0 12 -4 12 -21 -2 -21 -18 -21 -18 -3 3 9 11 14
24 10 28 -4 4 5 3 19 -3 19 -7 29 -7 34 1 4 6 3 8 -3 5 -6 -4 -13 0 -17 8 -3
8 -2 14 2 14 28 -4 44 3 38 17 -4 10 -2 13 6 8 8 -5 9 -1 4 12 -6 15 -5 17 5
7 7 -7 20 -13 28 -13 11 0 11 3 -4 13 -14 11 -15 16 -5 22 9 6 11 4 5 -5 -6
-9 -4 -11 4 -6 7 5 10 15 6 23 -5 14 -3 14 12 2 15 -12 16 -12 11 2 -7 19 9
39 26 33 7 -3 21 6 32 18 l19 23 -22 -18 c-16 -14 -23 -15 -29 -6 -4 8 -3 10
4 5 7 -4 12 -3 12 3 0 12 39 26 60 22 10 -2 9 2 -4 12 -17 13 -17 14 -2 20 9
4 15 3 12 -1 -3 -5 1 -9 9 -9 10 0 11 5 4 18 -10 20 -3 28 22 24 10 -2 16 4
15 14 0 9 5 15 12 13 8 -1 11 2 7 8 -3 6 1 18 11 27 16 16 16 16 10 -5 -5 -13
-3 -22 3 -22 6 0 10 3 10 7 -4 25 2 43 13 37 8 -5 9 -2 4 11 -5 14 -4 16 7 6
12 -9 14 -7 12 13 -3 20 1 24 21 21 18 -2 22 1 14 10 -7 9 -6 16 5 25 8 7 15
9 15 4 1 -5 7 5 15 21 13 27 14 27 10 5 -3 -14 -2 -19 1 -12 3 6 9 10 13 8 4
-3 7 4 7 16 -1 12 6 23 14 26 13 5 13 3 0 -14 -14 -18 -14 -18 2 -5 10 7 16
17 13 21 -3 5 1 11 7 13 10 4 10 6 0 6 -7 1 -10 6 -7 11 5 8 12 7 23 -2 13
-11 15 -10 9 5 -4 11 -1 20 8 23 8 4 15 10 15 16 0 5 -4 7 -9 4 -11 -7 -8 21
4 31 4 4 5 2 1 -4 -4 -8 -1 -13 9 -13 9 0 13 5 10 11 -4 6 0 9 11 7 14 -2 18
2 16 16 -2 10 1 16 5 13 5 -3 15 -2 23 3 11 7 11 12 2 23 -9 11 -7 16 13 27
13 7 22 18 18 23 -3 6 -1 7 5 3 7 -4 12 -1 12 8 0 9 5 16 11 16 5 0 7 -5 3
-12 -4 -6 -3 -8 4 -4 6 3 9 15 7 25 -2 10 1 24 7 32 8 11 9 10 4 -3 -3 -10 -1
-18 4 -18 12 0 20 14 22 43 1 14 7 23 12 20 5 -4 7 1 3 10 -3 9 -1 19 5 23 6
4 8 3 5 -3 -4 -6 -1 -16 7 -22 11 -9 12 -6 8 14 -2 14 0 25 7 25 6 0 8 -7 4
-17 -6 -15 -5 -16 9 -3 14 13 14 16 -1 28 -9 8 -10 10 -2 6 10 -5 13 -3 8 9
-4 11 -2 14 8 10 8 -3 12 -9 9 -14 -3 -5 0 -9 5 -9 15 0 14 13 -1 29 -10 11
-10 13 0 7 7 -5 12 -1 12 10 0 16 1 16 15 -2 13 -18 14 -18 8 5 -5 19 -3 22 8
16 11 -7 11 -5 -1 10 -14 17 -14 18 10 5 22 -12 24 -12 12 2 -9 11 -10 18 -2
23 6 3 7 12 3 18 -4 7 2 5 12 -3 17 -14 18 -14 7 7 -17 31 -15 40 4 17 8 -10
13 -13 9 -6 -3 6 -1 12 6 12 7 0 5 6 -5 13 -18 13 -18 14 0 14 11 0 22 -5 27
-11 4 -6 5 1 3 15 -3 19 0 26 11 25 9 0 17 9 19 22 3 16 0 21 -8 16 -7 -4 -3
4 10 18 12 13 19 29 15 33 -5 5 0 3 10 -4 9 -8 20 -11 24 -7 4 3 -2 12 -13 20
-17 13 -16 14 10 9 21 -4 27 -2 22 6 -4 6 -12 9 -17 5 -6 -3 -5 3 3 15 l13 21
12 -23 c13 -21 13 -21 7 6 -5 22 -3 27 12 27 16 0 17 2 4 10 -11 7 -12 10 -2
10 8 0 21 8 30 18 10 10 13 11 7 2 -9 -13 -8 -13 8 -1 18 15 18 15 0 29 -17
14 -17 14 4 9 13 -3 26 -1 29 4 3 5 2 9 -3 8 -4 -1 -17 -1 -28 1 l-20 1 20 8
c11 5 25 6 30 3 6 -3 4 2 -4 11 -12 15 -12 17 2 12 8 -4 18 -1 23 6 4 7 3 10
-3 6 -5 -3 -10 0 -10 7 0 7 7 13 16 12 9 -1 16 4 16 11 0 6 4 15 9 20 5 4 6 3
2 -4 -3 -6 -2 -14 3 -17 5 -4 8 1 7 10 -1 8 -9 20 -17 25 -11 7 -11 9 -1 9 7
0 11 4 7 9 -3 6 4 8 16 6 15 -3 18 -1 11 8 -13 15 1 52 25 66 10 6 15 11 10
11 -4 0 -1 13 7 29 14 27 14 30 -12 58 -15 17 -37 34 -49 37 -13 4 -23 11 -23
16 0 5 -27 23 -61 40 -33 16 -73 38 -87 49 -15 10 -30 19 -34 20 -12 2 -42 12
-63 21 -11 5 -37 14 -57 21 -21 7 -38 17 -38 22 0 4 -4 6 -9 3 -5 -3 -14 1
-21 10 -7 8 -19 13 -25 10 -7 -2 -25 2 -40 10 -15 8 -33 14 -41 14 -20 0 -10
166 17 274 5 23 12 50 14 61 3 11 10 49 15 85 15 91 22 128 45 220 5 19 53
241 65 300 5 25 18 70 30 100 11 30 23 71 26 90 3 19 8 42 11 50 3 8 7 47 9
85 6 120 13 198 23 250 5 28 7 89 6 137 -2 48 0 90 5 93 5 3 32 10 62 15 71
13 199 78 272 137 96 77 166 225 161 339 -4 86 -68 195 -143 244 -31 20 -34
49 -7 74 38 37 92 145 104 209 0 4 1 8 2 10 28 91 -8 183 -117 295 -23 23 -46
42 -52 42 -6 0 -12 4 -14 8 -2 4 -22 21 -44 38 -23 16 -66 47 -95 70 -98 74
-146 96 -206 93 -30 -2 -87 -11 -126 -22 -103 -26 -138 -29 -167 -12 -60 35
-169 86 -196 91 -89 17 -133 21 -169 17 -47 -5 -146 -63 -194 -113 -35 -37
-165 -224 -181 -263 -6 -12 -25 -49 -44 -83 -97 -176 -96 -337 3 -442 17 -18
31 -42 31 -53 0 -11 -19 -46 -41 -79 -116 -163 -78 -362 89 -468 44 -29 233
-92 273 -92 29 0 37 -28 38 -140 1 -124 7 -225 16 -260 4 -14 8 -35 10 -48 2
-13 12 -42 23 -65 28 -59 97 -256 126 -359 14 -48 36 -125 50 -170 56 -186 89
-389 102 -626 l7 -132 -40 0 c-47 0 -88 12 -164 48 -55 26 -58 30 -95 111 -91
197 -208 314 -384 384 -154 61 -394 75 -621 36 -198 -33 -451 -124 -546 -195
-38 -29 -43 -30 -43 -5 0 20 -13 35 -23 25 -3 -3 -79 -7 -169 -10 -95 -2 -164
-8 -166 -14 -5 -13 -32 -13 -32 -1 0 6 -12 6 -30 -1 -17 -5 -36 -8 -44 -5 -9
4 -12 0 -9 -12 3 -13 -3 -21 -25 -29 -22 -7 -28 -15 -27 -33 1 -13 -2 -30 -8
-36 -7 -10 -4 -13 12 -13 14 0 21 -6 21 -20 0 -13 -7 -20 -18 -20 -33 0 -82
-30 -82 -51 0 -14 -7 -19 -27 -19 -33 -1 -58 -17 -67 -46 -4 -13 -22 -26 -46
-34 -39 -13 -56 -40 -25 -40 8 0 15 -9 15 -20 0 -11 -4 -20 -10 -20 -5 0 -10
-7 -10 -16 0 -8 4 -12 10 -9 6 3 10 2 10 -4 0 -30 -227 -53 -268 -27 -7 4 -24
5 -38 2 -14 -4 -30 -3 -37 1 -6 4 -38 7 -70 8 -34 0 -61 5 -65 12 -4 7 -22 13
-40 15 -18 1 -32 6 -32 10 0 4 -13 8 -29 8 -17 0 -33 5 -36 10 -3 6 -16 10
-29 10 -12 0 -26 3 -30 8 -4 4 -11 7 -14 8 -4 0 -25 9 -47 19 -22 10 -42 19
-45 20 -3 1 -18 7 -33 13 -16 7 -33 12 -38 12 -6 0 -7 5 -3 12 4 6 3 8 -3 5
-12 -8 -153 58 -153 71 0 4 -9 8 -20 9 -11 1 -28 10 -39 20 -11 10 -40 24 -65
31 -35 9 -44 15 -39 28 4 12 17 15 57 12 45 -3 52 0 54 15 1 15 -4 18 -21 13
-51 -12 -90 20 -50 42 15 9 14 10 -3 20 -10 5 -41 13 -69 17 -75 12 -76 12
-130 31 -50 18 -139 98 -168 150 -35 65 -116 202 -144 244 -17 26 -29 51 -26
54 4 3 2 6 -4 6 -27 0 -152 330 -186 490 -38 184 -73 394 -79 480 -1 19 -4 40
-7 45 -6 12 -7 13 -16 90 -3 33 -8 62 -10 65 -3 6 -14 76 -20 135 -7 73 -16
146 -27 220 -6 44 -12 101 -13 126 -2 26 -8 77 -13 115 -14 84 -21 140 -28
219 -3 33 -8 71 -10 85 -8 39 -13 70 -22 132 -10 68 -12 66 97 74 41 3 78 7
82 10 4 2 27 6 50 9 54 7 233 42 274 54 92 27 235 75 270 90 22 10 65 29 95
42 86 38 197 102 289 168 l84 60 26 -19 c14 -10 35 -29 46 -42 11 -13 45 -53
75 -88 55 -65 61 -72 122 -146 77 -93 219 -293 300 -421 48 -76 91 -142 96
-148 4 -5 11 -19 15 -29 4 -10 10 -16 13 -14 13 13 -192 444 -251 528 -19 27
-35 52 -35 55 0 14 -125 183 -201 272 -138 160 -133 141 -51 220 38 38 107
111 152 163 46 52 86 96 90 98 23 9 274 -304 390 -485 26 -41 57 -81 69 -89
20 -14 20 -14 17 58 -4 107 -51 193 -229 420 -56 71 -121 155 -145 186 -49 65
-53 51 55 185 72 88 233 331 238 357 0 3 19 43 42 90 48 100 66 141 84 195 8
22 16 42 19 45 3 3 7 12 9 20 2 8 10 38 18 65 18 64 22 82 29 125 3 19 9 37
13 40 3 3 7 14 8 25 4 42 12 91 17 105 7 17 48 208 60 273 8 44 11 52 26 63
16 11 117 55 135 58 5 2 27 10 49 19 21 9 41 17 44 17 6 0 111 48 132 61 8 5
32 16 53 25 20 9 37 20 37 25 0 5 6 9 13 9 20 0 145 86 199 138 87 82 138 156
208 298 67 137 82 212 83 414 0 245 -8 312 -45 380 -112 199 -256 349 -414
432 -108 56 -167 68 -333 65 l-144 -2 -42 100 c-51 124 -81 183 -158 310 -188
311 -388 548 -639 757 -99 83 -265 208 -324 245 -242 151 -581 333 -749 402
-44 18 -98 41 -120 51 -325 141 -1059 321 -1407 344 -25 2 -50 6 -55 9 -24 15
-561 25 -758 15z m-5391 -10969 c-3 -5 -10 -7 -15 -3 -5 3 -7 10 -3 15 3 5 10
7 15 3 5 -3 7 -10 3 -15z m109 -94 c-3 -9 -8 -14 -10 -11 -3 3 -2 9 2 15 9 16
15 13 8 -4z m11977 -49 c0 -11 -19 -15 -25 -6 -3 5 1 10 9 10 9 0 16 -2 16 -4z
m-11809 -179 c-10 -9 -11 -8 -5 6 3 10 9 15 12 12 3 -3 0 -11 -7 -18z m520
-520 c-10 -9 -11 -8 -5 6 3 10 9 15 12 12 3 -3 0 -11 -7 -18z m10472 -107 c-3
-12 -8 -19 -11 -16 -5 6 5 36 12 36 2 0 2 -9 -1 -20z m-10173 -140 c8 -5 11
-10 5 -10 -5 0 -17 5 -25 10 -8 5 -10 10 -5 10 6 0 17 -5 25 -10z m67 -65 c0
-8 -4 -12 -9 -9 -5 3 -6 10 -3 15 9 13 12 11 12 -6z m203 -155 c0 -5 -2 -10
-4 -10 -3 0 -8 5 -11 10 -3 6 -1 10 4 10 6 0 11 -4 11 -10z m40 -4 c0 -2 -7
-7 -16 -10 -8 -3 -12 -2 -9 4 6 10 25 14 25 6z m10 -27 c0 -5 5 -7 12 -3 7 4
8 3 4 -5 -6 -9 -11 -9 -22 0 -17 14 -18 19 -4 19 6 0 10 -5 10 -11z m9279 -75
c-6 -8 -15 -12 -18 -8 -3 4 0 9 7 11 6 3 9 10 6 15 -4 7 -2 8 5 4 9 -6 9 -11
0 -22z m-374 -233 c3 -5 2 -12 -3 -15 -5 -3 -9 1 -9 9 0 17 3 19 12 6z m-8373
-45 c7 4 8 2 4 -5 -9 -13 -26 -5 -25 12 0 9 2 8 6 -1 2 -6 10 -9 15 -6z m373
-216 c3 -6 -1 -7 -9 -4 -18 7 -21 14 -7 14 6 0 13 -4 16 -10z m7595 6 c0 -3
-4 -8 -10 -11 -5 -3 -10 -1 -10 4 0 6 5 11 10 11 6 0 10 -2 10 -4z m-160 -81
c0 -7 -30 -13 -34 -7 -3 4 4 9 15 9 10 1 19 0 19 -2z m-5600 -610 c0 -2 -9 -3
-19 -2 -11 0 -18 5 -15 9 4 6 34 0 34 -7z m390 -80 c7 -9 8 -15 2 -15 -5 0
-12 7 -16 15 -3 8 -4 15 -2 15 2 0 9 -7 16 -15z m2385 -85 c3 -5 1 -10 -4 -10
-6 0 -11 5 -11 10 0 6 2 10 4 10 3 0 8 -4 11 -10z m-1114 -37 c12 -16 12 -17
-2 -6 -9 7 -20 9 -24 5 -5 -4 -5 -1 -1 6 9 16 11 15 27 -5z m483 1 c3 -8 2
-12 -4 -9 -6 3 -10 10 -10 16 0 14 7 11 14 -7z"/>
<path d="M11625 13339 c-4 -5 -18 -14 -31 -20 -14 -5 -31 -24 -40 -44 -12 -30
-12 -39 2 -74 8 -22 22 -42 29 -45 8 -3 26 -23 40 -46 27 -42 71 -68 88 -51 6
6 0 14 -16 23 -33 17 -103 82 -116 107 -6 11 -11 35 -11 54 0 28 8 42 40 71
22 20 36 36 31 36 -6 0 -13 -5 -16 -11z"/>
<path d="M13595 10639 c-244 -19 -372 -133 -404 -358 -6 -45 -17 -81 -28 -93
-23 -26 -112 -67 -233 -108 -136 -45 -162 -82 -114 -159 48 -77 159 -136 292
-155 18 -2 67 -19 110 -36 58 -25 89 -45 127 -85 28 -29 77 -74 110 -100 33
-27 62 -51 65 -55 3 -4 34 -23 70 -41 107 -55 198 -49 262 18 37 39 95 159
104 218 4 28 9 53 10 58 1 4 2 13 3 20 1 6 42 54 91 106 50 52 90 98 90 103 0
5 14 30 31 55 48 70 49 113 4 204 -21 41 -40 76 -44 79 -3 3 -18 21 -32 40
-41 55 -163 175 -214 210 -95 65 -183 89 -300 79z"/>
<path d="M15801 9684 c0 -11 3 -14 6 -6 3 7 2 16 -1 19 -3 4 -6 -2 -5 -13z"/>
<path d="M15830 9461 c0 -6 4 -12 8 -15 5 -3 9 1 9 9 0 8 -4 15 -9 15 -4 0 -8
-4 -8 -9z"/>
<path d="M15840 9401 c0 -6 4 -13 10 -16 6 -3 7 1 4 9 -7 18 -14 21 -14 7z"/>
<path d="M3167 9253 c-132 -30 -206 -102 -241 -235 -13 -51 -13 -65 -1 -113
46 -175 165 -285 309 -285 83 0 126 19 192 85 71 71 116 155 122 230 16 194
-186 363 -381 318z"/>
<path d="M12840 9202 c-32 -12 -152 -94 -188 -129 -64 -64 -63 -64 -107 -49
-29 10 -46 11 -69 3 -52 -18 -127 -68 -135 -91 -8 -21 -6 -122 5 -201 9 -68
59 -109 204 -167 26 -10 48 -12 84 -6 53 10 65 2 66 -37 0 -48 80 -125 128
-125 33 0 119 61 148 105 9 14 32 35 53 47 20 12 38 25 41 28 3 4 31 21 63 39
32 18 61 40 64 48 4 10 -6 26 -25 43 -28 24 -52 66 -52 90 0 20 34 16 126 -16
54 -18 100 -34 101 -34 1 0 11 10 23 22 14 15 20 35 20 66 0 38 -5 50 -35 77
-35 34 -69 48 -138 60 -21 3 -47 15 -57 25 -11 11 -38 31 -60 45 -23 14 -43
32 -46 40 -3 8 -37 37 -74 65 -65 48 -107 64 -140 52z"/>
<path d="M15864 9162 c4 -3 14 -7 22 -8 9 -1 13 0 10 4 -4 3 -14 7 -22 8 -9 1
-13 0 -10 -4z"/>
<path d="M15870 9130 c0 -5 5 -10 10 -10 6 0 10 5 10 10 0 6 -4 10 -10 10 -5
0 -10 -4 -10 -10z"/>
<path d="M14629 9126 c-2 -2 -22 -6 -44 -8 -36 -4 -81 -23 -95 -39 -3 -3 -27
-16 -55 -30 -59 -29 -174 -139 -198 -191 -19 -40 -22 -77 -7 -79 41 -5 90 8
90 23 0 5 5 6 12 2 6 -4 8 -3 5 3 -3 5 14 30 38 56 24 26 41 47 37 47 -9 0 31
36 55 48 42 23 147 33 213 19 14 -2 28 -5 32 -6 31 -5 115 -121 103 -141 -3
-6 -2 -10 3 -10 8 0 10 -75 2 -90 -1 -3 -3 -9 -4 -15 -3 -13 -23 -56 -38 -79
-16 -25 -68 -77 -68 -69 0 3 -8 -1 -17 -9 -18 -15 -136 -54 -208 -68 -21 -4
-60 -6 -85 -3 -25 2 -58 5 -75 7 -18 1 -52 -10 -85 -27 -91 -49 -94 -53 -94
-119 0 -51 27 -78 76 -78 51 0 84 18 138 77 24 26 48 47 52 45 4 -1 8 3 8 9 0
5 4 8 9 4 5 -3 12 -1 16 5 3 5 15 10 25 10 11 0 40 7 66 16 25 9 54 17 63 18
80 15 100 20 133 37 21 11 38 24 38 29 0 6 5 10 11 10 13 0 69 51 69 63 0 5 7
15 15 23 38 38 59 207 31 252 -4 6 -4 12 0 12 3 0 -1 11 -10 25 -9 14 -13 25
-9 25 5 0 0 5 -9 11 -10 5 -18 15 -18 21 0 13 -95 108 -109 108 -5 0 -15 8
-20 18 -6 9 -11 14 -11 9 0 -4 -11 0 -25 9 -14 9 -25 13 -25 9 0 -4 -6 -2 -13
4 -8 6 -16 9 -18 7z"/>
<path d="M13975 9000 c-3 -5 -17 -10 -29 -10 -28 0 -44 -17 -57 -62 -24 -83
-28 -124 -17 -168 5 -19 11 -45 13 -56 8 -34 34 -92 45 -99 6 -4 9 -9 7 -13
-2 -4 4 -15 15 -24 10 -10 18 -15 18 -12 0 4 6 1 14 -5 19 -16 72 -17 89 -2 8
6 13 19 12 29 -4 31 -17 62 -26 62 -4 0 -6 33 -3 73 8 105 10 210 5 222 -3 6
-6 16 -7 23 -6 37 -63 67 -79 42z"/>
<path d="M230 8759 c0 -5 5 -7 10 -4 6 3 10 8 10 11 0 2 -4 4 -10 4 -5 0 -10
-5 -10 -11z"/>
<path d="M1547 8458 c-55 -11 -117 -45 -160 -87 -128 -121 -103 -273 66 -408
31 -25 133 -64 178 -70 26 -3 52 -9 59 -13 7 -4 14 -34 17 -66 4 -64 12 -86
57 -154 58 -87 158 -164 255 -196 64 -21 230 -15 301 11 95 34 190 87 214 118
48 66 37 101 -55 177 -139 115 -181 157 -177 177 2 11 15 17 43 18 88 4 174
73 180 143 3 39 -1 45 -56 102 -34 34 -69 61 -82 62 -87 6 -138 -11 -157 -50
-8 -15 -14 -30 -14 -34 -1 -3 -4 -10 -8 -14 -5 -4 -8 -22 -8 -41 0 -50 -22
-51 -72 -1 -23 24 -70 66 -103 94 -33 28 -78 68 -100 88 -66 60 -169 124 -226
140 -58 16 -91 17 -152 4z"/>
<path d="M12499 7916 c-94 -36 -186 -123 -208 -197 -35 -116 -22 -218 37 -296
44 -57 63 -75 122 -111 38 -23 56 -27 120 -27 66 0 82 4 130 32 70 40 90 59
137 130 37 56 38 60 38 148 -1 75 -5 99 -26 145 -34 72 -79 116 -157 151 -76
35 -144 43 -193 25z"/>
<path d="M2972 7609 c-98 -18 -207 -98 -243 -177 -25 -56 -30 -174 -10 -244
30 -107 182 -236 289 -245 161 -14 367 172 363 330 -1 70 -66 203 -123 251
-85 73 -180 102 -276 85z"/>
<path d="M233 7465 c0 -8 4 -12 9 -9 5 3 6 10 3 15 -9 13 -12 11 -12 -6z"/>
<path d="M11879 6868 c-32 -11 -42 -40 -27 -74 13 -28 46 -39 85 -29 58 14 68
42 27 78 -35 30 -54 36 -85 25z"/>
<path d="M11207 6238 c-71 -9 -219 -59 -308 -103 -98 -50 -149 -92 -309 -254
-80 -80 -180 -178 -222 -217 -85 -77 -96 -105 -58 -146 11 -12 20 -31 20 -43
0 -39 29 -61 76 -56 7 0 34 16 60 34 27 19 67 40 89 47 22 7 46 17 53 23 6 5
12 6 12 2 0 -3 12 3 26 14 15 12 33 21 40 21 8 0 14 5 14 10 0 6 5 10 11 10
13 0 77 51 145 115 106 101 120 113 189 158 63 40 126 72 148 75 4 0 33 4 65
8 31 4 59 8 62 7 3 0 42 -4 88 -7 46 -3 89 -9 95 -13 7 -4 17 -8 24 -9 46 -7
216 -122 185 -125 -4 0 1 -4 11 -8 10 -4 17 -9 15 -12 -2 -3 11 -18 27 -33 17
-15 23 -25 15 -21 -10 4 -9 2 2 -8 10 -8 15 -17 11 -20 -3 -4 -1 -7 6 -7 7 0
9 -4 6 -10 -3 -5 -2 -10 4 -10 21 0 56 -96 68 -185 21 -165 26 -316 14 -415
-7 -58 -15 -129 -18 -157 l-5 -53 29 0 c27 0 47 13 81 55 7 8 11 15 8 15 -2 0
5 27 15 61 19 61 25 85 35 149 3 19 7 46 9 60 6 32 6 205 1 245 -13 100 -19
131 -27 141 -5 6 -6 14 -2 17 3 4 1 12 -5 19 -6 7 -11 18 -12 23 -3 24 -14 63
-29 95 -8 19 -15 37 -16 40 -4 17 -54 113 -80 155 -97 154 -280 283 -437 310
-60 11 -162 12 -231 3z"/>
<path d="M10323 6021 c-17 -11 -34 -17 -38 -13 -4 4 -5 2 -3 -3 3 -11 -37 -67
-43 -61 -2 3 -4 -12 -4 -33 0 -81 77 -124 185 -101 49 10 61 17 66 35 7 26 1
81 -11 110 -15 35 -82 85 -113 85 -4 0 -21 -9 -39 -19z"/>
<path d="M11283 5695 c-34 -37 -18 -84 54 -160 7 -7 9 -16 5 -20 -4 -5 -2 -5
4 -2 6 4 20 -5 30 -19 11 -14 46 -45 79 -69 33 -23 69 -55 80 -70 11 -15 37
-45 58 -66 21 -22 36 -39 33 -39 -3 0 2 -8 12 -18 27 -28 67 -84 64 -89 -2 -3
5 -11 15 -18 36 -26 47 25 47 215 0 69 -3 135 -6 147 -10 32 -61 136 -75 151
-7 7 -13 18 -13 24 0 6 -3 9 -6 5 -3 -3 -14 3 -25 14 -19 19 -45 27 -35 11 10
-17 18 -182 9 -182 -5 0 -8 -16 -7 -35 2 -19 -1 -37 -7 -40 -15 -10 -49 5 -49
21 0 8 -4 14 -8 14 -4 0 -16 14 -26 31 -10 16 -33 45 -52 64 -19 19 -34 39
-34 44 0 5 -9 13 -20 16 -11 4 -18 11 -15 16 4 5 1 9 -6 9 -6 0 -19 9 -29 20
-25 28 -62 41 -77 25z"/>
<path d="M12994 5654 c-81 -29 -144 -121 -144 -208 1 -71 60 -152 141 -192 93
-47 175 -19 245 82 47 68 52 124 17 191 -61 117 -158 164 -259 127z"/>
<path d="M4216 5638 c-9 -5 -16 -6 -16 -2 0 4 -11 -5 -25 -20 -14 -15 -25 -24
-25 -20 0 13 -30 -19 -46 -50 -17 -31 -26 -113 -15 -131 3 -5 6 -16 7 -23 3
-20 56 -62 79 -63 61 -5 135 13 135 32 0 4 9 11 20 14 11 4 18 10 15 15 -3 5
2 13 10 18 36 19 52 125 22 144 -7 4 -9 8 -6 8 10 0 -60 75 -71 76 -6 1 -11 3
-12 4 -8 7 -59 5 -72 -2z"/>
<path d="M10925 5404 c-6 -1 -22 -5 -37 -8 -24 -5 -26 -9 -22 -43 4 -35 32
-71 74 -93 10 -5 21 -23 25 -38 7 -36 40 -55 86 -50 27 2 34 7 35 26 1 12 2
27 3 33 0 6 13 10 29 8 15 -1 35 1 44 5 24 11 4 51 -33 66 -16 7 -31 21 -34
31 -4 10 -11 19 -16 19 -5 0 -9 7 -9 16 0 8 -4 13 -9 9 -5 -3 -15 1 -23 8 -11
11 -85 18 -113 11z"/>
<path d="M11254 5319 c-3 -5 0 -9 7 -9 7 0 9 -3 6 -7 -4 -3 2 -20 13 -38 11
-18 17 -35 13 -38 -3 -4 -1 -7 5 -7 7 0 12 -5 12 -11 0 -6 9 -23 19 -38 11
-15 21 -34 23 -41 2 -8 11 -23 21 -34 9 -11 17 -26 17 -33 0 -7 5 -13 10 -13
6 0 10 -7 10 -15 0 -8 4 -15 8 -15 9 0 38 -67 31 -72 -10 -9 39 -47 59 -45 26
2 28 21 7 91 -8 26 -12 52 -9 57 3 5 0 9 -5 9 -6 0 -11 7 -11 15 0 8 -4 23 -9
33 -5 9 -16 32 -23 50 -7 17 -16 32 -20 32 -5 0 -8 4 -8 10 0 11 -23 41 -63
80 -29 29 -103 54 -113 39z"/>
<path d="M11096 5127 c-3 -12 -6 -27 -6 -33 0 -15 51 -23 80 -12 18 7 19 10 8
22 -8 7 -28 21 -45 29 -30 16 -31 16 -37 -6z"/>
<path d="M10940 5045 c0 -17 14 -32 46 -48 17 -9 45 -28 62 -43 24 -21 44 -29
79 -31 27 -1 64 -3 83 -5 29 -2 36 1 38 18 5 32 -24 48 -87 49 -31 0 -71 6
-89 14 -28 12 -32 18 -27 38 5 22 4 23 -50 21 -30 -2 -55 -7 -55 -13z"/>
<path d="M10377 5034 c-4 -4 -7 -18 -7 -30 0 -27 -7 -33 -47 -36 -27 -2 -29
-4 -19 -20 6 -10 15 -16 21 -15 14 5 138 -42 147 -56 4 -7 8 -8 8 -3 0 5 7 2
16 -5 16 -13 21 -15 87 -25 31 -5 36 -3 31 10 -3 9 -10 13 -15 10 -5 -3 -12 2
-15 10 -3 9 -10 14 -14 11 -5 -3 -13 3 -19 12 -6 10 -11 14 -11 9 0 -5 -9 -1
-20 9 -11 10 -17 23 -13 29 3 6 3 8 -1 4 -11 -9 -77 38 -90 64 -12 23 -28 32
-39 22z"/>
<path d="M4373 4945 c-29 -13 -53 -29 -53 -35 0 -6 -4 -9 -9 -6 -5 4 -11 1
-13 -5 -2 -6 -30 -12 -63 -15 -84 -5 -96 -8 -111 -29 -8 -10 -14 -15 -14 -10
0 4 -11 -4 -25 -19 -13 -14 -29 -26 -35 -26 -6 0 -9 -4 -6 -8 2 -4 -8 -13 -23
-20 -42 -19 -34 -37 17 -38 25 -1 47 -6 51 -10 3 -5 17 -10 30 -12 13 -2 39
-12 57 -23 19 -10 41 -19 49 -19 21 0 85 32 85 42 0 5 5 6 10 3 6 -3 10 -2 10
2 0 5 15 17 33 27 39 23 88 72 104 106 16 32 18 58 9 93 -10 34 -34 35 -103 2z"/>
<path d="M10784 4935 c19 -47 17 -94 -4 -115 -12 -12 -19 -24 -17 -26 9 -9 86
16 94 30 4 7 13 15 18 17 6 2 -14 29 -44 59 -30 30 -51 46 -47 35z"/>
<path d="M3966 4703 c-4 -5 -11 -8 -14 -8 -15 -1 -57 -29 -65 -42 -5 -8 -22
-22 -37 -32 -55 -33 0 -51 110 -37 25 4 63 8 86 10 58 6 122 27 128 42 4 10
-17 12 -95 12 -108 -1 -128 6 -110 41 12 21 10 27 -3 14z"/>
<path d="M11018 4552 c-123 -2 -148 -5 -148 -17 0 -8 -5 -15 -11 -15 -5 0 -7
-5 -3 -11 4 -8 9 -7 15 2 7 12 12 12 29 1 12 -7 56 -13 108 -13 48 -1 93 -6
101 -13 11 -8 13 -8 7 2 -4 7 -2 12 8 12 8 0 17 -6 19 -12 4 -10 6 -10 6 0 1
6 10 12 22 12 11 0 17 4 14 10 -3 5 9 9 30 8 22 -1 35 -6 35 -15 0 -16 14 -17
41 -3 23 13 25 30 4 30 -8 0 -15 5 -15 11 0 8 -12 10 -36 6 -19 -3 -45 -3 -57
1 -12 4 -88 6 -169 4z"/>
<path d="M10347 4516 c-4 -10 0 -12 14 -9 27 7 34 23 11 23 -11 0 -22 -6 -25
-14z"/>
<path d="M1656 3521 c-4 -5 -2 -12 3 -15 5 -4 12 -2 15 3 4 5 2 12 -3 15 -5 4
-12 2 -15 -3z"/>
<path d="M14431 3456 c-9 -10 -9 -16 -1 -21 6 -4 14 -4 17 -1 4 3 1 6 -7 6
-10 0 -10 3 0 15 7 8 10 15 7 15 -2 0 -10 -6 -16 -14z"/>
<path d="M1742 3390 c-7 -11 -8 -20 -3 -20 9 0 24 30 18 36 -1 2 -8 -6 -15
-16z"/>
<path d="M1750 3346 c0 -2 7 -7 16 -10 8 -3 12 -2 9 4 -6 10 -25 14 -25 6z"/>
<path d="M14186 3122 c-3 -5 1 -9 9 -9 8 0 12 4 9 9 -3 4 -7 8 -9 8 -2 0 -6
-4 -9 -8z"/>
<path d="M2304 2721 c0 -11 5 -17 13 -14 10 4 11 9 2 19 -15 18 -15 18 -15 -5z"/>
<path d="M13845 2730 c-3 -5 -1 -10 4 -10 6 0 11 5 11 10 0 6 -2 10 -4 10 -3
0 -8 -4 -11 -10z"/>
<path d="M2315 2690 c-3 -5 -1 -10 4 -10 6 0 11 5 11 10 0 6 -2 10 -4 10 -3 0
-8 -4 -11 -10z"/>
<path d="M2356 2662 c-3 -5 1 -9 9 -9 8 0 12 4 9 9 -3 4 -7 8 -9 8 -2 0 -6 -4
-9 -8z"/>
<path d="M13566 2451 c-4 -5 -2 -12 3 -15 5 -4 12 -2 15 3 4 5 2 12 -3 15 -5
4 -12 2 -15 -3z"/>
<path d="M2655 2340 c-4 -6 -1 -9 7 -8 7 2 12 -2 11 -8 -1 -6 5 -11 13 -11 20
0 18 10 -6 24 -12 8 -21 9 -25 3z"/>
<path d="M2826 2205 c4 -8 11 -15 16 -15 6 0 5 6 -2 15 -7 8 -14 15 -16 15 -2
0 -1 -7 2 -15z"/>
<path d="M13273 2145 c0 -8 4 -12 9 -9 5 3 6 10 3 15 -9 13 -12 11 -12 -6z"/>
<path d="M3060 1979 c0 -5 5 -7 10 -4 6 3 10 8 10 11 0 2 -4 4 -10 4 -5 0 -10
-5 -10 -11z"/>
<path d="M12790 1781 c0 -6 4 -13 10 -16 6 -3 7 1 4 9 -7 18 -14 21 -14 7z"/>
<path d="M3420 1716 c0 -3 9 -10 20 -16 11 -6 20 -8 20 -6 0 3 -9 10 -20 16
-11 6 -20 8 -20 6z"/>
<path d="M3776 1475 c-3 -8 -1 -15 4 -15 6 0 10 7 10 15 0 8 -2 15 -4 15 -2 0
-6 -7 -10 -15z"/>
<path d="M4015 1338 c1 -7 8 -12 14 -10 14 3 42 -23 36 -32 -3 -3 -2 -4 2 -1
10 8 13 36 3 30 -5 -3 -12 0 -15 6 -4 5 -13 8 -20 5 -8 -3 -16 -1 -19 5 -2 5
-3 4 -1 -3z"/>
<path d="M4223 1205 c0 -8 4 -12 9 -9 5 3 6 10 3 15 -9 13 -12 11 -12 -6z"/>
<path d="M4335 1161 c-3 -5 -2 -12 3 -15 5 -3 9 1 9 9 0 17 -3 19 -12 6z"/>
<path d="M4471 1094 c0 -11 3 -14 6 -6 3 7 2 16 -1 19 -3 4 -6 -2 -5 -13z"/>
<path d="M4530 1072 c0 -6 5 -14 10 -17 6 -4 8 -10 6 -14 -3 -4 1 -8 9 -8 12
0 12 4 -2 21 -10 12 -19 23 -20 25 -2 2 -3 -1 -3 -7z"/>
<path d="M11570 1039 c0 -5 5 -7 10 -4 6 3 10 8 10 11 0 2 -4 4 -10 4 -5 0
-10 -5 -10 -11z"/>
<path d="M4611 1025 c0 -5 3 -16 8 -23 7 -11 9 -10 14 3 4 9 3 14 -2 10 -5 -3
-12 1 -14 7 -3 7 -6 9 -6 3z"/>
<path d="M11455 1009 c-10 -15 3 -25 16 -12 7 7 7 13 1 17 -6 3 -14 1 -17 -5z"/>
<path d="M4745 949 c-4 -6 -5 -12 -2 -15 2 -3 7 2 10 11 7 17 1 20 -8 4z"/>
<path d="M5573 647 c0 -7 9 -14 20 -14 11 -1 18 -1 16 0 -2 2 -11 8 -20 15
-12 9 -16 9 -16 -1z"/>
<path d="M5790 584 c0 -8 5 -12 10 -9 6 4 8 11 5 16 -9 14 -15 11 -15 -7z"/>
<path d="M9843 493 c-7 -2 -13 -9 -13 -15 0 -6 6 -6 15 2 8 6 20 8 26 4 8 -4
9 -3 5 4 -8 13 -13 14 -33 5z"/>
<path d="M6275 460 c3 -5 8 -10 11 -10 2 0 4 5 4 10 0 6 -5 10 -11 10 -5 0 -7
-4 -4 -10z"/>
<path d="M9635 430 c-3 -5 -1 -10 4 -10 6 0 11 5 11 10 0 6 -2 10 -4 10 -3 0
-8 -4 -11 -10z"/>
<path d="M6786 362 c-3 -5 1 -9 9 -9 8 0 12 4 9 9 -3 4 -7 8 -9 8 -2 0 -6 -4
-9 -8z"/>
<path d="M6975 339 c-3 -4 2 -6 10 -5 21 3 28 13 10 13 -9 0 -18 -4 -20 -8z"/>
<path d="M8155 280 c3 -5 8 -10 11 -10 2 0 4 5 4 10 0 6 -5 10 -11 10 -5 0 -7
-4 -4 -10z"/>
</g>
</svg>
